<mxfile host="65bd71144e">
    <diagram id="Kevm4fN1ZLywGNJcQ6MG" name="ページ1">
        <mxGraphModel dx="1007" dy="673" grid="1" gridSize="10" guides="1" tooltips="1" connect="1" arrows="1" fold="1" page="1" pageScale="1" pageWidth="827" pageHeight="1169" math="0" shadow="0">
            <root>
                <mxCell id="0"/>
                <mxCell id="1" parent="0"/>
                <mxCell id="9" style="edgeStyle=orthogonalEdgeStyle;rounded=0;orthogonalLoop=1;jettySize=auto;html=1;entryX=0;entryY=0.5;entryDx=0;entryDy=0;" edge="1" parent="1" source="2" target="7">
                    <mxGeometry relative="1" as="geometry"/>
                </mxCell>
                <mxCell id="2" value="client" style="whiteSpace=wrap;html=1;" vertex="1" parent="1">
                    <mxGeometry x="70" y="190" width="70" height="30" as="geometry"/>
                </mxCell>
                <mxCell id="12" style="edgeStyle=orthogonalEdgeStyle;rounded=0;orthogonalLoop=1;jettySize=auto;html=1;entryX=0;entryY=0.5;entryDx=0;entryDy=0;endArrow=open;endFill=0;dashed=1;" edge="1" parent="1" source="7" target="11">
                    <mxGeometry relative="1" as="geometry">
                        <mxPoint x="440" y="90" as="targetPoint"/>
                    </mxGeometry>
                </mxCell>
                <mxCell id="17" value="依存" style="edgeLabel;html=1;align=center;verticalAlign=middle;resizable=0;points=[];" vertex="1" connectable="0" parent="12">
                    <mxGeometry x="0.1607" relative="1" as="geometry">
                        <mxPoint x="14" as="offset"/>
                    </mxGeometry>
                </mxCell>
                <mxCell id="18" style="edgeStyle=orthogonalEdgeStyle;rounded=0;orthogonalLoop=1;jettySize=auto;html=1;entryX=0;entryY=0.5;entryDx=0;entryDy=0;dashed=1;endArrow=open;endFill=0;" edge="1" parent="1" source="7" target="13">
                    <mxGeometry relative="1" as="geometry"/>
                </mxCell>
                <mxCell id="19" style="edgeStyle=orthogonalEdgeStyle;rounded=0;orthogonalLoop=1;jettySize=auto;html=1;entryX=0;entryY=0.5;entryDx=0;entryDy=0;dashed=1;endArrow=open;endFill=0;" edge="1" parent="1" source="7" target="15">
                    <mxGeometry relative="1" as="geometry"/>
                </mxCell>
                <mxCell id="7" value="OrderManager" style="swimlane;" vertex="1" parent="1">
                    <mxGeometry x="250" y="175" width="120" height="60" as="geometry"/>
                </mxCell>
                <mxCell id="8" value="+ order( Order )" style="text;html=1;align=center;verticalAlign=middle;resizable=0;points=[];autosize=1;strokeColor=none;" vertex="1" parent="1">
                    <mxGeometry x="252" y="204" width="100" height="20" as="geometry"/>
                </mxCell>
                <mxCell id="11" value="Order" style="swimlane;" vertex="1" parent="1">
                    <mxGeometry x="552.5" y="20" width="157.5" height="123" as="geometry"/>
                </mxCell>
                <mxCell id="10" value="- items&lt;br&gt;+ __construct()&lt;br&gt;&lt;hr id=&quot;null&quot;&gt;+ addItem( OrderItem )&lt;br&gt;+ getItems()" style="text;html=1;align=left;verticalAlign=middle;resizable=0;points=[];autosize=1;strokeColor=none;spacingLeft=6;" vertex="1" parent="11">
                    <mxGeometry x="8.5" y="33" width="140" height="80" as="geometry"/>
                </mxCell>
                <mxCell id="13" value="ItemDao" style="swimlane;" vertex="1" parent="1">
                    <mxGeometry x="552.5" y="175" width="158.5" height="155" as="geometry"/>
                </mxCell>
                <mxCell id="14" value="- instance&lt;br&gt;- items&lt;br&gt;+ __construct()&lt;br&gt;&lt;hr id=&quot;null&quot;&gt;+ &lt;u&gt;getInstance()&lt;/u&gt;&lt;br&gt;+ ifndById( $item_id )&lt;br&gt;+ setAside( OrderItem )&lt;br&gt;+ __clone()" style="text;html=1;align=left;verticalAlign=middle;resizable=0;points=[];autosize=1;strokeColor=none;spacingLeft=6;" vertex="1" parent="13">
                    <mxGeometry x="8.5" y="27" width="150" height="120" as="geometry"/>
                </mxCell>
                <mxCell id="30" style="edgeStyle=orthogonalEdgeStyle;rounded=0;orthogonalLoop=1;jettySize=auto;html=1;dashed=1;endArrow=open;endFill=0;entryX=1;entryY=0.5;entryDx=0;entryDy=0;exitX=1;exitY=0.5;exitDx=0;exitDy=0;" edge="1" parent="1" source="15" target="11">
                    <mxGeometry relative="1" as="geometry">
                        <mxPoint x="1240" y="150" as="targetPoint"/>
                        <Array as="points">
                            <mxPoint x="1260" y="385"/>
                            <mxPoint x="1260" y="82"/>
                        </Array>
                    </mxGeometry>
                </mxCell>
                <mxCell id="31" value="依存" style="edgeLabel;html=1;align=center;verticalAlign=middle;resizable=0;points=[];" vertex="1" connectable="0" parent="30">
                    <mxGeometry x="-0.9005" relative="1" as="geometry">
                        <mxPoint y="13" as="offset"/>
                    </mxGeometry>
                </mxCell>
                <mxCell id="15" value="OrderDao" style="swimlane;" vertex="1" parent="1">
                    <mxGeometry x="552.5" y="360" width="157.5" height="50" as="geometry"/>
                </mxCell>
                <mxCell id="16" value="+ createOrdre( Order )" style="text;html=1;align=left;verticalAlign=middle;resizable=0;points=[];autosize=1;strokeColor=none;spacingLeft=6;" vertex="1" parent="15">
                    <mxGeometry x="8.5" y="26" width="140" height="20" as="geometry"/>
                </mxCell>
                <mxCell id="21" style="edgeStyle=orthogonalEdgeStyle;rounded=0;orthogonalLoop=1;jettySize=auto;html=1;dashed=1;endArrow=open;endFill=0;" edge="1" parent="1" source="20">
                    <mxGeometry relative="1" as="geometry">
                        <mxPoint x="635" y="313" as="targetPoint"/>
                    </mxGeometry>
                </mxCell>
                <mxCell id="20" value="final" style="shape=note;whiteSpace=wrap;html=1;backgroundOutline=1;darkOpacity=0.05;align=left;size=17;spacingLeft=4;" vertex="1" parent="1">
                    <mxGeometry x="739" y="295" width="60" height="35" as="geometry"/>
                </mxCell>
                <mxCell id="22" value="OrderItem" style="swimlane;" vertex="1" parent="1">
                    <mxGeometry x="825" y="186" width="185" height="134" as="geometry"/>
                </mxCell>
                <mxCell id="32" value="- item&lt;br&gt;- amount&lt;br&gt;+ __construct( Item, amount )&lt;br&gt;&lt;hr id=&quot;null&quot;&gt;+ getItem()&lt;br&gt;+ getAmount()" style="text;html=1;strokeColor=none;fillColor=none;align=left;verticalAlign=middle;whiteSpace=wrap;rounded=0;" vertex="1" parent="22">
                    <mxGeometry x="7.5" y="28" width="170" height="100" as="geometry"/>
                </mxCell>
                <mxCell id="24" style="edgeStyle=orthogonalEdgeStyle;rounded=0;orthogonalLoop=1;jettySize=auto;html=1;dashed=1;endArrow=open;endFill=0;entryX=0;entryY=0.5;entryDx=0;entryDy=0;exitX=0.99;exitY=0.432;exitDx=0;exitDy=0;exitPerimeter=0;" edge="1" parent="1" source="14" target="22">
                    <mxGeometry relative="1" as="geometry">
                        <mxPoint x="795" y="254.5" as="targetPoint"/>
                        <mxPoint x="710" y="200" as="sourcePoint"/>
                    </mxGeometry>
                </mxCell>
                <mxCell id="25" value="依存" style="edgeLabel;html=1;align=center;verticalAlign=middle;resizable=0;points=[];" vertex="1" connectable="0" parent="24">
                    <mxGeometry x="-0.3631" y="2" relative="1" as="geometry">
                        <mxPoint x="20" y="-10" as="offset"/>
                    </mxGeometry>
                </mxCell>
                <mxCell id="26" style="edgeStyle=orthogonalEdgeStyle;rounded=0;orthogonalLoop=1;jettySize=auto;html=1;dashed=1;endArrow=open;endFill=0;exitX=1;exitY=0.5;exitDx=0;exitDy=0;entryX=0;entryY=0.5;entryDx=0;entryDy=0;" edge="1" parent="1" source="22" target="28">
                    <mxGeometry relative="1" as="geometry">
                        <mxPoint x="1229.0000000000002" y="262" as="targetPoint"/>
                        <mxPoint x="1050" y="262" as="sourcePoint"/>
                    </mxGeometry>
                </mxCell>
                <mxCell id="27" value="依存" style="edgeLabel;html=1;align=center;verticalAlign=middle;resizable=0;points=[];" vertex="1" connectable="0" parent="26">
                    <mxGeometry x="-0.3631" y="2" relative="1" as="geometry">
                        <mxPoint x="8" y="-10" as="offset"/>
                    </mxGeometry>
                </mxCell>
                <mxCell id="28" value="Item" style="swimlane;" vertex="1" parent="1">
                    <mxGeometry x="1065" y="181" width="158.5" height="144" as="geometry"/>
                </mxCell>
                <mxCell id="29" value="- id&lt;br&gt;- name&lt;br&gt;- price&lt;br&gt;&lt;hr id=&quot;null&quot;&gt;+ getId()&lt;br&gt;+ getName()&lt;br&gt;+ getPrice()" style="text;html=1;align=left;verticalAlign=middle;resizable=0;points=[];autosize=1;strokeColor=none;spacingLeft=6;" vertex="1" parent="28">
                    <mxGeometry x="2" y="29" width="90" height="100" as="geometry"/>
                </mxCell>
            </root>
        </mxGraphModel>
    </diagram>
</mxfile>